# xmcd
#
# Track frame offsets: 
#        150
#        6792
#        29592
#        37074
#        61652
#        64350
#        89926
#        98032
#        117734
#        119389
#        135945
#        138707
#        161038
#        182924
#        185490
#        216820
#        219334
#        234711
#        238003
#        245241
#
# Disc length: 3329 seconds
#
# Revision: 0
# Processed by: cddbd v1.5.2PL0 Copyright (c) Steve Scherf et al.
# Submitted via: ExactAudioCopy v0.95b3
#
DISCID=380cff14
DTITLE=Various Artist - Wiilie Nelson Sings The Blues
DYEAR=2007
DGENRE=Blues
TTITLE0=01 Announcer
TTITLE1=02 Bright Lights. Big City
TTITLE2=03 Announcer
TTITLE3=04 Nightlife
TTITLE4=05 Anouncer
TTITLE5=06 Rainy Day Blues
TTITLE6=07 Announcer
TTITLE7=08 Georgia On My Mind
TTITLE8=09 Announcer
TTITLE9=10 Don't Get Around Much Anymore
TTITLE10=11 Announcer
TTITLE11=12 My Bucket's Got A Hole In It
TTITLE12=13 Basin Street Blues
TTITLE13=14 Announcer
TTITLE14=15 Ain't Noboby's Business
TTITLE15=16 Announcer
TTITLE16=17 Calidonia
TTITLE17=18 Announcer
TTITLE18=19 Stardust
TTITLE19=20 Announcer
EXTD=
EXTT0=
EXTT1=
EXTT2=
EXTT3=
EXTT4=
EXTT5=
EXTT6=
EXTT7=
EXTT8=
EXTT9=
EXTT10=
EXTT11=
EXTT12=
EXTT13=
EXTT14=
EXTT15=
EXTT16=
EXTT17=
EXTT18=
EXTT19=
PLAYORDER=
